<svg width="15" height="16" viewBox="0 0 15 16" fill="none" xmlns="http://www.w3.org/2000/svg">
<path d="M6.56513 15.1797C6.80938 15.1797 7.0073 15.3633 7.0073 15.5898C7.0073 15.8164 6.80938 16 6.56513 16H1.02892C0.745368 16 0.48849 15.8932 0.301797 15.7201C0.115104 15.5469 0 15.3086 0 15.0456V0.954427C0 0.691406 0.115104 0.453125 0.301797 0.279948C0.48849 0.106771 0.745368 0 1.02892 0H13.6651C13.9486 0 14.2055 0.108073 14.3922 0.279948C14.5789 0.453125 14.694 0.691406 14.694 0.954427V7.48307C14.694 7.70964 14.4961 7.89323 14.2518 7.89323C14.0076 7.89323 13.8097 7.70964 13.8097 7.48307V0.954427C13.8097 0.917969 13.7928 0.884115 13.7661 0.860677C13.7395 0.835938 13.703 0.820313 13.6651 0.820313H1.02892C0.989613 0.820313 0.953116 0.835938 0.926446 0.859375C0.901179 0.885417 0.884335 0.917969 0.884335 0.954427V15.0443C0.884335 15.0807 0.901179 15.1146 0.92785 15.138C0.95452 15.1628 0.991016 15.1784 1.03032 15.1784H6.56513V15.1797ZM13.8546 9.67969C13.783 9.61589 13.7002 9.58594 13.6047 9.58724C13.5093 9.58854 13.4278 9.6237 13.3605 9.6888L12.8116 10.2188L14.3515 11.5977L14.906 11.0625C14.9719 11 15 10.9193 14.9986 10.8307C14.9972 10.7435 14.9635 10.6641 14.8961 10.6042L13.8546 9.67969ZM10.9784 14.8451C10.7748 14.9049 10.5727 14.9674 10.3706 15.0286C10.167 15.0911 9.96491 15.1549 9.76277 15.2174C9.28411 15.3633 9.016 15.444 8.95985 15.4583C8.90511 15.474 8.93739 15.2656 9.05811 14.832L9.43852 13.4714L12.3231 10.6875L13.8616 12.0612L10.9784 14.8451ZM4.4329 5.34896C4.18866 5.34896 3.99074 5.16537 3.99074 4.9388C3.99074 4.71224 4.18866 4.52865 4.4329 4.52865H10.2639C10.5081 4.52865 10.7061 4.71224 10.7061 4.9388C10.7061 5.16537 10.5081 5.34896 10.2639 5.34896H4.4329ZM4.4329 11.168C4.18866 11.168 3.98933 10.9818 3.98933 10.7526C3.98933 10.5234 4.18725 10.3372 4.4329 10.3372H7.30629C7.55053 10.3372 7.74986 10.5234 7.74986 10.7526C7.74986 10.9818 7.55194 11.168 7.30629 11.168H4.4329ZM4.4329 8.25651C4.18866 8.25651 3.99074 8.07292 3.99074 7.84635C3.99074 7.61979 4.18866 7.4362 4.4329 7.4362H10.2639C10.5081 7.4362 10.7061 7.61979 10.7061 7.84635C10.7061 8.07292 10.5081 8.25651 10.2639 8.25651H4.4329Z" fill="currentColor"/>
</svg>
